<svg fill="#fff9b0" enable-background="new 0 0 48 48" height="512" viewBox="0 0 48 48" width="512" xmlns="http://www.w3.org/2000/svg"><g id="_x35_-Star"><path d="m42.9726563 19.6572266c-.1308594-.4047852-.5048828-.6826172-.9306641-.6914063l-12.8710938-.2617188-4.2265625-12.1230468c-.1396484-.4018555-.5185546-.6708984-.9443359-.6708984s-.8046875.269043-.9443359.6708984l-4.2265625 12.1230469-12.8710938.2617187c-.4257813.0087891-.7998047.2866211-.9306641.6914063-.1318359.4052734.0087891.8496093.3486329 1.1064453l10.2568359 7.7529297-3.7275391 12.2827148c-.1230469.4072266.0244141.8481445.3681641 1.0991211.3457031.2504883.8095703.2558594 1.1591797.0131836l10.5673828-7.3325195 10.5673828 7.3325195c.171875.1186523.3710938.1782227.5703125.1782227.2070313 0 .4130859-.0639648.5888672-.1914063.34375-.2509766.4912109-.6918945.3681641-1.0991211l-3.7275391-12.2827148 10.2568359-7.7529297c.3398438-.256836.4804688-.7011719.3486329-1.1064453z"/></g></svg>
